<svg xmlns="http://www.w3.org/2000/svg" xmlns:xlink="http://www.w3.org/1999/xlink" width="500" zoomAndPan="magnify" viewBox="0 0 375 374.999991" height="500" preserveAspectRatio="xMidYMid meet" version="1.0"><defs><g/><clipPath id="b7065028af"><path d="M 150 17.066406 L 362 17.066406 L 362 262.316406 L 150 262.316406 Z M 150 17.066406 " clip-rule="nonzero"/></clipPath></defs><rect x="-37.5" width="450" fill="#ffffff" y="-37.499999" height="449.999989" fill-opacity="1"/><rect x="-37.5" width="450" fill="#ffffff" y="-37.499999" height="449.999989" fill-opacity="1"/><rect x="-37.5" width="450" fill="#ffffff" y="-37.499999" height="449.999989" fill-opacity="1"/><path fill="#ff914d" d="M 66.757812 139.605469 L 65.378906 139.769531 L 24.386719 98.796875 L 24.382812 98.796875 C 18.785156 93.199219 15.980469 85.863281 15.980469 78.523438 C 15.980469 71.1875 18.78125 63.847656 24.382812 58.25 C 35.585938 47.054688 53.746094 47.054688 64.953125 58.25 L 105.945312 99.222656 L 105.652344 101.3125 L 67.875 139.476562 L 105.789062 177.511719 L 105.949219 180.320312 L 65.316406 220.921875 C 54.109375 232.125 35.949219 232.125 24.742188 220.933594 C 13.539062 209.730469 13.539062 191.578125 24.746094 180.375 L 65.378906 139.769531 Z M 66.757812 139.605469 " fill-opacity="1" fill-rule="nonzero"/><path fill="#2a3645" d="M 188.773438 182.007812 L 146.515625 139.773438 L 187.898438 98.410156 C 189.273438 96.703125 190.734375 95.066406 192.285156 93.511719 C 204.144531 78.257812 202.160156 65.707031 192.058594 55.613281 C 186.453125 50.019531 178.621094 46.378906 171.285156 46.371094 C 171.285156 46.371094 159.578125 46.316406 150.253906 55.054688 C 149.753906 55.527344 149.226562 55.96875 148.730469 56.460938 L 105.945312 99.226562 L 65.375 139.773438 L 105.945312 180.320312 L 148.371094 222.714844 C 149.175781 223.523438 150.023438 224.253906 150.886719 224.941406 C 165.4375 236.632812 182.496094 235.320312 192.894531 224.929688 C 203.292969 214.535156 202.792969 198.394531 191.164062 184.679688 C 190.34375 183.816406 189.546875 182.925781 188.773438 182.007812 " fill-opacity="1" fill-rule="nonzero"/><g clip-path="url(#b7065028af)"><path fill="#6ac08f" d="M 239.027344 17.066406 C 207.734375 17.066406 179.1875 28.785156 157.511719 48.058594 C 155 50.292969 152.582031 52.625 150.253906 55.054688 C 155.621094 50.40625 162.304688 48.066406 168.992188 48.058594 L 169.042969 48.058594 C 176.378906 48.066406 183.710938 50.867188 189.300781 56.457031 C 199.402344 66.550781 200.390625 82.296875 192.285156 93.507812 C 194.015625 91.75 195.851562 90.09375 197.78125 88.539062 C 209.074219 79.425781 223.414062 73.953125 239.027344 73.953125 C 275.289062 73.953125 304.796875 103.4375 304.796875 139.675781 C 304.796875 175.917969 275.289062 205.398438 239.027344 205.398438 C 223.414062 205.398438 209.074219 199.929688 197.78125 190.820312 C 195.433594 188.917969 193.230469 186.867188 191.164062 184.679688 C 200.078125 195.9375 199.351562 212.324219 188.949219 222.714844 C 178.539062 233.109375 162.144531 233.851562 150.886719 224.941406 C 152.945312 227.074219 155.09375 229.140625 157.308594 231.109375 C 157.347656 231.136719 157.375 231.164062 157.402344 231.191406 C 179.09375 250.535156 207.683594 262.289062 239.027344 262.289062 C 306.78125 262.289062 361.707031 207.394531 361.707031 139.675781 C 361.707031 71.960938 306.78125 17.066406 239.027344 17.066406 " fill-opacity="1" fill-rule="nonzero"/></g><g fill="#000000" fill-opacity="1"><g transform="translate(26.227042, 353.915514)"><g><path d="M 0.550781 0 L 16.578125 0 L 29.289062 -22.566406 L 41.910156 0 L 57.476562 0 L 36.75 -35.09375 L 54.710938 -65.949219 L 39.144531 -65.949219 L 29.289062 -47.621094 L 19.34375 -65.949219 L 3.40625 -65.949219 L 21.277344 -35.09375 Z M 0.550781 0 "/></g></g></g><g fill="#000000" fill-opacity="1"><g transform="translate(91.98579, 353.915514)"><g><path d="M 3.5 -37.578125 L 3.5 -25.328125 L 37.027344 -25.328125 L 37.027344 -37.578125 Z M 3.5 -37.578125 "/></g></g></g><g fill="#000000" fill-opacity="1"><g transform="translate(141.443266, 353.915514)"><g><path d="M 49.277344 -50.566406 L 50.84375 -64.105469 C 46.882812 -65.855469 42.460938 -66.6875 37.855469 -66.6875 C -6.722656 -66.6875 -6.816406 0.183594 37.855469 0.183594 C 42.460938 0.183594 48.265625 -0.921875 52.316406 -2.578125 L 50.566406 -16.210938 C 48.082031 -14.921875 43.566406 -13.261719 37.855469 -13.261719 C 11.789062 -13.261719 11.789062 -53.421875 37.855469 -53.421875 C 43.566406 -53.421875 46.789062 -51.855469 49.277344 -50.566406 Z M 49.277344 -50.566406 "/></g></g></g><g fill="#000000" fill-opacity="1"><g transform="translate(204.531176, 353.915514)"><g><path d="M 7.367188 -65.855469 L 7.367188 0 L 41.449219 0 L 41.449219 -13.171875 L 20.539062 -13.171875 L 20.539062 -65.855469 Z M 7.367188 -65.855469 "/></g></g></g><g fill="#000000" fill-opacity="1"><g transform="translate(257.580443, 353.915514)"><g><path d="M 20.539062 0 L 20.539062 -65.855469 L 7.367188 -65.855469 L 7.367188 0 Z M 20.539062 0 "/></g></g></g><g fill="#000000" fill-opacity="1"><g transform="translate(293.22327, 353.915514)"><g><path d="M 20.539062 0 L 20.539062 -25.144531 L 33.25 -25.144531 C 58.765625 -25.144531 58.855469 -65.765625 33.25 -65.765625 L 7.367188 -65.765625 L 7.367188 0 Z M 20.539062 -37.949219 L 20.539062 -52.683594 L 32.144531 -52.683594 C 40.988281 -52.683594 40.988281 -37.949219 32.144531 -37.949219 Z M 20.539062 -37.949219 "/></g></g></g></svg>